<?xml version="1.0" encoding="UTF-8"?><!DOCTYPE svg PUBLIC "-//W3C//DTD SVG 1.1//EN" "http://www.w3.org/Graphics/SVG/1.1/DTD/svg11.dtd"><svg xmlns="http://www.w3.org/2000/svg" xmlns:xlink="http://www.w3.org/1999/xlink"><symbol id="icon-fb" viewBox="0 0 18 39">
<path d="M4.6588 39V22.0042H0V14.3584H4.76532V8.03139C4.76532 8.03139 4.98274 0.0619276 11.095 0H17.8977V7.50299H13.678C13.678 7.50299 11.8963 7.50299 11.8963 9.74534C11.8963 11.9829 11.8963 14.4918 11.8963 14.4918H18L17.2669 22.1328H12.0028V39H4.6588Z"/>
</symbol><symbol id="icon-instagram" viewBox="0 0 36 36">
<path d="M36 0H0V36H36V0ZM18 11.4C21.6456 11.4 24.6 14.3556 24.6 18C24.6 21.6432 21.6456 24.6 18 24.6C14.3556 24.6 11.4 21.6432 11.4 18C11.4 14.3556 14.3556 11.4 18 11.4ZM31.2 31.2H4.8V15H7.6308C7.356 15.9528 7.2 16.9584 7.2 18C7.2 23.964 12.0372 28.8 18 28.8C23.9664 28.8 28.8 23.964 28.8 18C28.8 16.9584 28.644 15.9528 28.3692 15H31.2V31.2ZM31.2 6.0096V9.6288V10.8C31.2 10.8 30.6636 10.7868 30.0192 10.7976V10.8H26.4C25.746 10.8 25.2 10.8 25.2 10.8V4.8H30L30.0192 4.8036C30.0192 4.8036 31.2 4.8096 31.2 4.8C31.2 4.8 31.1976 6.006 31.1976 6.0096H31.2Z"/>
</symbol><symbol id="icon-login" viewBox="0 0 16 16">
<g>
<path d="M7 2H14V14H7V16H16V0H7V2Z"/>
<path d="M7 9H0V7H7V4L11 8L7 12V9Z"/>
</g>
</symbol><symbol id="icon-vk" viewBox="0 0 23 26">
<path d="M21.0578 23.1669C22.3524 21.6495 23 19.9256 23 17.9952C23 14.77 20.3795 12.5167 16.7104 11.704C18.2892 11.3102 19.476 10.8769 20.2725 9.82914C21.0685 8.78136 21.4666 7.60888 21.4666 6.31371C21.4666 4.53562 20.7811 3.46042 19.4104 2.07623C18.0395 0.69205 15.8589 0 12.8681 0H0V26H13.5008C17.7378 26.0001 19.7631 24.6843 21.0578 23.1669ZM7.15553 5.14199H10.3755C12.3139 5.14199 13.2834 5.80362 13.2834 7.25114C13.2834 7.78441 13.0757 8.78752 12.6605 9.2572C12.2449 9.72704 11.5314 9.96192 10.5209 9.96192H7.15562V5.14199H7.15553ZM7.11795 20.2097V15.4858H11.0644C12.3381 15.4858 13.2142 15.7367 13.6918 16.2381C14.1692 16.7398 14.4086 17.2887 14.4086 17.8858C14.4086 18.4829 14.1625 19.0189 13.6712 19.4953C13.1794 19.9719 12.4072 20.2097 11.3551 20.2097H7.11795Z"/>
</symbol></svg>